<?xml version="1.0" standalone="no"?>
<!DOCTYPE svg PUBLIC "-//W3C//DTD SVG 20010904//EN"
 "http://www.w3.org/TR/2001/REC-SVG-20010904/DTD/svg10.dtd">
<svg version="1.0" xmlns="http://www.w3.org/2000/svg"
 width="700.000000pt" height="700.000000pt" viewBox="0 0 700.000000 700.000000"
 preserveAspectRatio="xMidYMid meet">
<metadata>
Created by potrace 1.14, written by Peter Selinger 2001-2017
</metadata>
<g transform="translate(0.000000,700.000000) scale(0.100000,-0.100000)"
fill="#000000" stroke="none">
<path d="M4151 6435 c3 -21 -2 -23 -29 -16 -15 5 -37 5 -49 0 -13 -5 -25 -4
-28 1 -4 6 -13 7 -23 1 -9 -4 -26 -7 -37 -5 -56 10 -86 10 -91 2 -3 -5 -12 -4
-20 3 -11 9 -14 8 -14 -2 0 -9 -3 -10 -8 -4 -6 9 -32 11 -54 5 -17 -4 -54 -4
-63 1 -9 5 -27 5 -40 0 -6 -3 -102 -3 -112 -1 -5 1 -24 2 -43 1 -105 -2 -186
-2 -195 -1 -5 1 -26 2 -45 1 -105 -2 -186 -2 -195 -1 -5 1 -26 2 -45 1 -105
-2 -186 -2 -195 -1 -5 1 -26 2 -45 1 -103 -2 -186 -2 -192 -1 -21 5 -66 3 -81
-3 -9 -3 -19 -2 -22 4 -4 5 -11 7 -16 3 -5 -3 -43 -8 -85 -10 -41 -3 -86 -9
-99 -14 -17 -6 -25 -6 -25 1 0 6 -7 3 -16 -5 -8 -9 -23 -16 -32 -16 -9 0 -41
-11 -70 -25 -61 -28 -66 -30 -56 -13 4 7 3 8 -5 4 -6 -4 -9 -11 -6 -16 7 -11
-24 -22 -37 -13 -6 3 -8 1 -5 -4 8 -13 -40 -46 -54 -38 -5 4 -8 3 -7 -2 2 -4
0 -8 -3 -8 -3 0 -22 -17 -42 -38 -20 -22 -41 -36 -46 -32 -7 3 -8 0 -5 -9 4
-11 0 -16 -11 -16 -9 0 -14 -3 -12 -7 5 -9 -49 -63 -57 -57 -3 2 -4 1 -1 -3 7
-10 -46 -63 -57 -57 -5 3 -7 1 -6 -4 5 -15 -52 -73 -64 -66 -7 4 -8 3 -4 -5 9
-14 -92 -123 -106 -115 -4 3 -5 -3 -1 -13 6 -16 5 -17 -12 -3 -10 8 -16 10
-12 3 10 -16 -3 -43 -21 -43 -8 0 -13 -3 -10 -6 9 -8 -114 -134 -124 -128 -5
3 -7 2 -6 -3 5 -15 -54 -83 -65 -76 -6 3 -7 2 -4 -4 8 -13 -31 -45 -45 -37 -7
5 -8 3 -4 -5 10 -15 -23 -53 -37 -44 -6 3 -7 1 -3 -6 4 -6 0 -14 -8 -17 -9 -3
-16 -10 -16 -16 0 -18 -30 -40 -47 -34 -13 5 -14 4 -4 -8 13 -15 -1 -32 -18
-22 -5 3 -8 -2 -7 -12 0 -9 -5 -16 -12 -14 -8 1 -11 -1 -8 -6 2 -4 -13 -25
-35 -46 -21 -21 -39 -43 -39 -47 0 -5 -8 -9 -17 -9 -9 0 -14 -2 -11 -5 9 -10
-99 -118 -111 -111 -6 4 -11 3 -11 -3 0 -5 5 -11 10 -13 6 -2 -3 -18 -20 -36
-16 -18 -28 -35 -27 -37 1 -2 -7 -15 -18 -27 -10 -13 -18 -24 -17 -26 5 -5
-34 -82 -39 -78 -3 3 -5 -3 -6 -12 -1 -27 -29 -123 -34 -118 -2 3 -4 -11 -3
-30 1 -19 -1 -34 -5 -34 -3 0 -6 -25 -5 -55 0 -32 -4 -55 -10 -55 -6 0 -5 -4
3 -9 9 -6 10 -11 2 -15 -6 -4 -8 -13 -4 -19 4 -7 7 -58 8 -115 0 -87 -2 -101
-15 -97 -10 3 -8 0 3 -9 15 -12 16 -18 8 -35 -7 -13 -8 -22 -1 -26 5 -3 10
-11 10 -16 0 -6 -4 -8 -9 -4 -6 3 -6 -7 -1 -26 6 -18 6 -38 1 -47 -5 -9 -5
-26 0 -40 5 -14 5 -30 -1 -41 -5 -10 -6 -21 -3 -25 4 -4 7 -54 8 -112 0 -88
-2 -103 -15 -99 -10 3 -8 0 3 -9 15 -12 16 -18 8 -35 -8 -14 -8 -22 0 -27 8
-4 7 -9 -2 -15 -9 -6 -10 -9 -2 -9 10 0 11 -22 3 -55 -1 -5 -1 -12 0 -15 1 -3
3 -22 4 -43 1 -30 -1 -36 -14 -32 -13 4 -13 4 0 -8 19 -16 23 -33 10 -56 -5
-10 -6 -22 -2 -26 4 -3 7 -22 7 -41 1 -27 -3 -33 -15 -29 -13 4 -13 4 0 -8 19
-16 23 -33 10 -56 -5 -10 -6 -22 -2 -26 4 -3 7 -22 7 -41 1 -27 -3 -33 -15
-29 -13 4 -13 4 0 -8 19 -16 23 -33 11 -56 -7 -12 -7 -21 0 -28 8 -8 8 -17 0
-31 -6 -10 -7 -22 -4 -26 11 -10 12 -37 2 -30 -5 3 -4 -7 1 -21 6 -16 7 -33 1
-43 -5 -9 -5 -26 0 -40 5 -14 5 -30 -1 -41 -5 -10 -6 -21 -3 -25 4 -4 7 -54 8
-112 0 -88 -2 -103 -15 -99 -10 3 -8 0 3 -9 15 -12 16 -18 8 -35 -7 -13 -8
-22 -1 -26 5 -3 10 -11 10 -16 0 -6 -4 -8 -9 -4 -6 3 -6 -7 -1 -26 6 -18 6
-38 1 -47 -5 -9 -5 -26 0 -38 8 -23 6 -55 -6 -73 -3 -5 -2 -12 3 -15 7 -4 9
-93 2 -121 -1 -5 -1 -12 0 -15 1 -3 3 -53 4 -113 1 -91 -1 -106 -14 -102 -10
3 -8 0 3 -9 15 -11 16 -19 8 -34 -7 -13 -7 -22 0 -29 8 -8 8 -13 0 -17 -7 -5
-7 -15 -1 -31 7 -18 6 -25 -3 -25 -7 0 -8 -3 -2 -8 9 -7 17 -71 19 -154 0 -20
4 -35 7 -32 9 5 21 -75 13 -88 -4 -6 -3 -8 2 -5 6 3 15 -7 21 -24 6 -16 7 -27
3 -24 -5 3 3 -15 16 -40 14 -25 22 -45 17 -45 -4 0 -3 -4 2 -8 9 -7 45 -76 45
-88 0 -3 -5 -2 -12 2 -7 4 -8 3 -4 -5 4 -6 11 -9 16 -6 5 3 16 -7 24 -23 8
-16 31 -51 51 -76 31 -41 34 -50 23 -64 -11 -15 -11 -15 2 -5 10 8 21 9 30 3
8 -6 12 -10 9 -10 -4 0 16 -23 45 -52 28 -28 50 -55 49 -59 -2 -5 5 -5 14 -2
13 5 15 2 10 -11 -4 -10 -3 -15 3 -11 6 4 27 -7 48 -23 20 -16 47 -34 60 -41
12 -7 20 -17 16 -23 -4 -6 -3 -8 3 -5 6 4 36 -6 68 -22 35 -18 52 -31 43 -35
-7 -3 -3 -3 10 0 13 3 22 1 22 -6 0 -6 5 -8 10 -5 6 4 16 3 23 -2 21 -16 157
-55 190 -55 9 1 17 -3 17 -8 0 -5 7 -6 17 -3 12 5 14 3 8 -7 -6 -9 -4 -11 6
-5 18 12 101 6 118 -8 8 -7 12 -7 9 -1 -8 13 390 13 411 0 10 -6 12 -6 7 2 -8
13 28 12 40 -1 4 -4 12 -7 18 -7 6 0 5 4 -2 9 -8 4 23 8 72 7 46 0 82 -4 80
-8 -3 -4 0 -8 5 -8 6 0 11 4 11 8 0 5 51 8 114 8 63 0 113 -4 110 -8 -3 -4 0
-8 5 -8 6 0 11 4 11 9 0 16 134 8 148 -9 11 -13 11 -13 7 1 -5 13 14 15 157
15 90 -1 169 -5 177 -10 10 -6 12 -6 7 2 -8 13 28 12 40 -1 4 -4 12 -7 18 -7
6 0 5 4 -2 9 -8 4 23 8 72 7 46 0 82 -4 80 -8 -3 -4 0 -8 5 -8 6 0 11 4 11 8
0 5 51 8 114 8 63 0 113 -4 110 -8 -3 -4 0 -8 5 -8 6 0 11 4 11 8 0 5 28 10
63 11 93 3 121 6 135 15 7 4 12 2 12 -6 0 -9 3 -10 8 -2 4 6 32 17 62 24 30 7
70 19 88 27 18 7 37 11 41 8 5 -3 11 2 15 10 3 8 12 15 19 15 8 0 40 14 71 30
31 17 62 28 68 24 6 -4 8 -3 5 3 -4 6 4 18 18 27 14 9 25 14 25 11 0 -3 9 4
20 15 12 12 26 18 32 14 6 -4 8 -3 5 3 -4 6 0 16 8 23 8 7 15 10 15 6 0 -3 21
16 46 42 26 26 50 46 55 45 5 -2 8 0 7 5 -4 11 34 51 46 48 6 -2 7 -1 3 2 -10
5 104 118 115 115 5 -2 7 1 5 5 -4 15 345 357 362 355 11 -2 12 0 3 3 -17 8
136 160 157 157 11 -2 12 -1 3 3 -9 4 5 24 45 63 32 31 61 55 65 54 5 -2 7 1
5 5 -3 11 294 308 305 305 4 -2 7 0 6 5 -4 11 34 51 46 48 6 -2 7 -1 3 2 -10
5 104 118 115 115 5 -2 7 1 5 5 -1 4 46 57 106 116 59 59 107 112 107 118 0 5
5 6 10 3 6 -3 10 -3 10 2 0 4 24 40 53 80 30 39 64 94 78 122 13 28 31 51 39
51 12 0 12 2 2 9 -11 6 -10 11 3 24 8 9 16 19 15 22 0 3 0 6 1 8 0 1 2 13 5
26 2 14 9 30 14 36 5 7 7 15 3 18 -3 4 -1 7 6 7 7 0 10 4 7 8 -7 12 14 86 28
94 8 6 8 8 0 8 -7 0 -9 10 -6 25 2 14 9 22 15 18 6 -4 7 -1 1 8 -11 19 -5 82
9 91 7 5 8 8 2 8 -10 0 -11 81 -2 143 2 15 1 30 -3 32 -9 6 -8 25 3 43 5 6 4
12 -2 12 -10 0 -8 46 3 57 3 3 1 12 -5 19 -7 8 -7 14 1 19 6 3 7 13 2 23 -9
21 -9 43 1 59 4 6 3 14 -3 18 -5 3 -10 11 -10 16 0 6 4 8 8 5 5 -3 9 1 9 9 0
8 -4 15 -7 15 -9 0 -5 73 4 88 3 6 2 13 -2 16 -10 6 -8 48 2 65 4 5 2 12 -3
15 -10 7 -9 25 2 44 5 6 4 12 -2 12 -10 0 -8 46 3 57 3 3 1 12 -5 19 -7 8 -7
14 1 19 6 3 7 13 2 23 -9 21 -9 43 1 59 4 6 3 14 -3 18 -5 3 -10 11 -10 16 0
6 4 8 8 5 5 -3 9 1 9 9 0 8 -3 15 -7 15 -9 0 -7 52 3 68 5 6 4 12 -1 12 -5 0
-7 21 -6 48 5 61 5 63 1 92 -2 14 1 30 5 37 5 6 5 14 -2 18 -5 3 -10 11 -10
16 0 6 4 8 8 5 5 -3 9 1 9 9 0 8 -4 15 -7 15 -9 0 -5 73 4 88 3 6 2 13 -2 16
-10 6 -8 48 2 65 4 5 2 12 -3 15 -10 7 -9 25 2 44 5 6 4 12 -2 12 -10 0 -8 46
3 57 3 3 1 12 -5 19 -7 8 -7 14 1 19 6 3 7 13 2 23 -9 21 -9 43 1 59 4 6 3 14
-3 18 -5 3 -10 11 -10 16 0 6 4 8 8 5 5 -3 9 1 9 9 0 8 -4 15 -7 15 -9 0 -5
73 4 88 3 6 2 13 -4 17 -7 4 -7 12 0 24 5 10 6 21 3 25 -4 4 -8 21 -10 39 -1
18 -4 53 -6 78 -2 25 -8 52 -12 59 -6 9 -4 11 6 5 11 -7 12 -6 3 6 -6 8 -17
38 -24 68 -7 30 -23 81 -36 114 -13 33 -21 64 -17 70 3 5 1 7 -5 3 -6 -3 -15
8 -22 29 -6 19 -16 35 -22 35 -6 0 -8 9 -5 20 3 11 1 18 -3 15 -11 -7 -31 29
-28 47 2 7 -3 12 -10 10 -7 -1 -16 6 -19 15 -4 10 -15 24 -25 31 -10 7 -18 17
-18 22 0 13 -118 132 -175 175 -27 21 -50 43 -50 49 0 6 -9 11 -20 11 -11 0
-19 6 -17 13 1 8 -2 11 -7 7 -10 -6 -84 29 -76 37 2 2 -5 5 -17 5 -12 1 -25 8
-29 15 -5 7 -9 9 -9 4 0 -5 -6 -3 -14 3 -8 7 -27 14 -42 17 -15 3 -32 8 -38
12 -6 3 -15 7 -21 9 -5 1 -33 8 -62 16 -28 8 -54 12 -57 9 -3 -3 -6 -1 -6 4 0
5 -8 10 -17 10 -86 4 -125 9 -129 16 -3 5 -10 5 -16 2 -9 -6 -171 -9 -188 -4
-3 1 -21 2 -40 1 -105 -2 -186 -2 -195 -1 -5 1 -26 2 -45 1 -108 -2 -186 -2
-195 0 -5 0 -18 0 -28 -1 -10 -1 -25 4 -33 11 -8 7 -14 8 -13 3 3 -19 -2 -22
-29 -15 -15 5 -37 5 -49 0 -13 -5 -25 -4 -28 1 -4 6 -13 7 -23 1 -9 -4 -26 -7
-37 -5 -56 10 -86 10 -91 2 -3 -5 -12 -4 -20 3 -11 9 -14 8 -14 -2 0 -8 -6 -5
-15 7 -8 10 -15 15 -14 9z"/>
</g>
</svg>
