<?xml version="1.0" encoding="UTF-8" standalone="no"?>
<!DOCTYPE svg PUBLIC "-//W3C//DTD SVG 1.1//EN" "http://www.w3.org/Graphics/SVG/1.1/DTD/svg11.dtd">
<svg width="100%" height="100%" viewBox="0 0 700 700" version="1.1" xmlns="http://www.w3.org/2000/svg" xmlns:xlink="http://www.w3.org/1999/xlink" xml:space="preserve" xmlns:serif="http://www.serif.com/" style="fill-rule:evenodd;clip-rule:evenodd;stroke-linejoin:round;stroke-miterlimit:2;">
    <g transform="matrix(1.38962,0,0,1.39624,-9.38802,-9.54744)">
        <path d="M486.905,136.358L486.905,136.281L486.925,136.281C487.57,133.875 487.905,131.373 487.905,128.838C487.905,108.864 487.905,68.451 487.905,44.078C487.905,38.778 485.799,33.696 482.052,29.948C478.304,26.201 473.222,24.095 467.922,24.095C391.771,24.095 120.22,24.095 44.075,24.095C38.776,24.095 33.694,26.2 29.947,29.947C26.2,33.694 24.095,38.776 24.095,44.075L24.095,467.883C24.095,478.941 33.059,487.905 44.117,487.905C69.981,487.905 113.836,487.905 132.027,487.905C137.335,487.905 142.426,485.798 146.181,482.047C187.193,441.088 430.838,197.76 479.464,149.197C483.055,145.61 485.601,141.173 486.905,136.358Z" style="fill:rgb(85,107,255);"/>
    </g>
</svg>
