<?xml version="1.0" standalone="no"?>
<!DOCTYPE svg PUBLIC "-//W3C//DTD SVG 20010904//EN"
 "http://www.w3.org/TR/2001/REC-SVG-20010904/DTD/svg10.dtd">
<svg version="1.0" xmlns="http://www.w3.org/2000/svg"
 width="700.000000pt" height="700.000000pt" viewBox="0 0 700.000000 700.000000"
 preserveAspectRatio="xMidYMid meet">
<metadata>
Created by potrace 1.14, written by Peter Selinger 2001-2017
</metadata>
<g transform="translate(0.000000,700.000000) scale(0.100000,-0.100000)"
fill="#000000" stroke="none">
<path d="M1455 6408 c-116 -15 -310 -91 -361 -142 -8 -9 -19 -16 -23 -16 -3 0
-36 -29 -73 -65 -140 -138 -226 -312 -245 -495 -4 -36 -7 -963 -6 -2060 0
-1773 2 -2003 16 -2066 76 -349 346 -599 702 -650 17 -2 379 -4 805 -4 l775
-1 96 25 c99 25 187 64 275 122 48 32 2558 2531 2648 2638 84 98 140 213 171
352 17 73 18 143 19 864 0 714 -2 791 -18 855 -58 233 -166 391 -354 515 -72
48 -199 104 -262 115 -18 3 -38 9 -44 13 -15 9 -4046 9 -4121 0z"/>
</g>
</svg>
