<?xml version="1.0" standalone="no"?>
<!DOCTYPE svg PUBLIC "-//W3C//DTD SVG 20010904//EN"
 "http://www.w3.org/TR/2001/REC-SVG-20010904/DTD/svg10.dtd">
<svg version="1.0" xmlns="http://www.w3.org/2000/svg"
 width="700.000000pt" height="700.000000pt" viewBox="0 0 700.000000 700.000000"
 preserveAspectRatio="xMidYMid meet">
<metadata>
Created by potrace 1.14, written by Peter Selinger 2001-2017
</metadata>
<g transform="translate(0.000000,700.000000) scale(0.100000,-0.100000)"
fill="#000000" stroke="none">
<path d="M1767 6414 c-1 -1 -31 -5 -67 -8 -36 -4 -105 -18 -155 -32 -440 -125
-746 -492 -793 -951 -9 -90 -7 -3505 2 -3563 29 -180 91 -340 186 -480 47 -69
174 -202 235 -246 22 -16 46 -35 54 -42 7 -7 63 -37 125 -67 129 -63 247 -98
371 -111 64 -6 2016 -6 2060 1 205 30 385 102 532 213 55 42 1649 1629 1698
1692 117 148 208 362 231 544 9 70 11 1961 2 2061 -37 418 -323 784 -723 928
-38 13 -95 30 -125 36 -30 6 -66 14 -80 18 -21 5 -3546 13 -3553 7z"/>
</g>
</svg>
