<?xml version="1.0" standalone="no"?>
<!DOCTYPE svg PUBLIC "-//W3C//DTD SVG 20010904//EN"
 "http://www.w3.org/TR/2001/REC-SVG-20010904/DTD/svg10.dtd">
<svg version="1.0" xmlns="http://www.w3.org/2000/svg"
 width="700.000000pt" height="700.000000pt" viewBox="0 0 700.000000 700.000000"
 preserveAspectRatio="xMidYMid meet">
<metadata>
Created by potrace 1.14, written by Peter Selinger 2001-2017
</metadata>
<g transform="translate(0.000000,700.000000) scale(0.100000,-0.100000)"
fill="#000000" stroke="none">
<path d="M2425 6412 c-2 -2 -24 -5 -49 -6 -25 -1 -48 -5 -52 -9 -4 -4 -18 -7
-31 -7 -13 0 -22 -3 -20 -7 3 -5 -5 -9 -16 -9 -49 -4 -179 -63 -170 -77 4 -6
0 -8 -10 -4 -10 3 -17 2 -17 -3 0 -5 -8 -11 -19 -15 -10 -3 -30 -16 -43 -28
-13 -12 -28 -24 -33 -26 -6 -1 -9 -7 -8 -11 2 -5 -6 -12 -17 -15 -11 -4 -18
-11 -15 -16 4 -5 2 -9 -3 -9 -14 0 -67 -52 -75 -73 -4 -10 -11 -15 -17 -12 -5
3 -10 2 -10 -3 0 -4 -37 -47 -83 -95 -46 -48 -81 -87 -77 -87 3 -1 -6 -7 -20
-15 -14 -8 -21 -14 -17 -15 5 0 -13 -21 -40 -47 -26 -26 -47 -51 -46 -55 2 -4
-3 -8 -11 -8 -8 0 -18 -9 -21 -20 -4 -11 -11 -18 -16 -15 -5 4 -9 2 -9 -3 0
-5 -42 -53 -93 -106 -51 -53 -92 -96 -90 -96 1 0 -37 -40 -86 -90 -48 -49 -85
-92 -82 -95 3 -3 -5 -8 -17 -12 -12 -3 -22 -10 -22 -15 0 -5 -22 -32 -50 -60
-27 -28 -50 -54 -50 -60 0 -5 -5 -6 -10 -3 -6 3 -10 2 -10 -3 0 -5 -10 -20
-22 -34 -40 -43 -88 -115 -81 -122 3 -3 1 -6 -4 -6 -16 0 -56 -87 -47 -101 4
-8 3 -9 -4 -5 -11 6 -16 -6 -13 -26 0 -5 -3 -8 -8 -8 -5 0 -8 -12 -5 -26 3
-14 1 -23 -5 -20 -7 5 -27 -96 -21 -106 1 -2 -3 -15 -9 -29 -7 -19 -6 -30 2
-39 7 -7 7 -10 2 -7 -12 6 -14 -2681 -2 -2700 4 -6 3 -14 -3 -18 -6 -4 -7 -12
-3 -18 4 -6 8 -29 9 -52 1 -22 3 -41 4 -42 1 -2 3 -7 4 -12 0 -5 4 -12 8 -16
4 -4 4 -13 1 -21 -3 -8 -2 -22 2 -31 9 -21 15 -41 17 -65 1 -10 6 -18 10 -18
4 0 8 -11 8 -25 0 -14 5 -25 10 -25 6 0 10 -7 10 -15 0 -52 127 -251 222 -348
32 -33 58 -64 58 -69 0 -5 4 -7 9 -4 5 3 17 -5 27 -19 10 -13 21 -22 25 -20 3
3 21 -9 38 -25 17 -17 31 -28 31 -24 0 3 13 -4 29 -15 16 -12 34 -21 40 -21 6
0 11 -4 11 -10 0 -5 4 -10 10 -10 5 0 40 -14 77 -31 37 -17 75 -31 85 -32 10
-1 18 -4 18 -7 0 -3 12 -7 26 -8 14 -1 31 -5 37 -9 7 -4 23 -9 37 -9 14 -1 26
-3 28 -4 1 -1 11 -4 22 -5 11 -1 21 -4 23 -5 9 -8 174 -10 1022 -11 1002 -1
1057 -1 1093 12 13 5 22 5 22 -1 0 -6 9 -6 23 0 28 11 75 23 104 25 12 1 29 8
38 15 8 7 15 10 15 7 0 -6 110 37 155 61 17 9 34 16 38 17 4 0 12 7 17 15 5 8
10 11 10 7 0 -4 10 1 22 13 12 11 27 20 32 20 11 0 53 33 106 82 13 13 28 22
32 21 5 -2 8 3 9 10 0 6 18 27 41 45 22 17 38 32 35 32 -7 0 22 30 81 83 23
20 40 37 38 37 -2 0 12 17 33 38 20 21 39 36 44 34 4 -2 7 3 7 11 0 7 11 20
25 27 13 7 23 16 22 19 -5 9 41 50 47 43 3 -3 6 2 6 12 0 9 5 14 10 11 6 -3
10 -2 10 3 0 10 50 65 63 70 4 1 7 4 7 7 0 3 20 23 45 45 26 22 44 40 41 40
-6 0 11 16 102 102 33 32 59 58 57 58 -5 0 27 32 88 88 26 23 45 42 43 42 -3
0 10 15 27 33 18 18 35 31 40 29 4 -2 7 3 7 11 0 7 11 20 25 27 13 7 23 16 22
19 -5 9 41 50 47 43 3 -3 6 2 6 12 0 9 4 15 9 11 5 -3 12 4 16 15 3 11 13 20
21 20 8 0 13 3 11 7 -3 5 5 17 16 28 11 11 16 14 12 6 -5 -9 -4 -12 3 -7 7 4
12 13 13 19 0 7 18 27 41 45 22 17 38 32 35 32 -7 0 22 30 81 82 23 21 40 38
38 38 -2 0 12 17 33 38 20 21 39 36 44 34 4 -2 7 3 7 11 0 7 11 20 25 27 14 7
23 15 21 18 -7 7 18 30 27 25 4 -2 7 3 7 11 0 8 9 18 21 21 11 4 18 9 15 12
-2 3 13 24 34 47 57 60 61 65 110 140 24 38 45 76 47 85 1 9 6 17 12 19 5 2
15 23 22 48 7 24 17 44 21 44 4 0 8 10 8 23 0 13 4 27 8 33 9 9 35 114 37 144
0 8 3 20 6 25 3 6 4 20 3 33 0 12 3 22 8 22 5 0 4 9 -2 20 -8 15 -8 20 2 20 9
0 9 3 -2 10 -8 5 -10 10 -5 10 11 0 14 1976 4 1995 -4 6 -5 20 -4 33 1 12 -1
22 -5 22 -5 0 -10 32 -13 78 0 6 -3 12 -7 12 -3 0 -6 9 -7 20 -2 26 -42 137
-65 178 -10 17 -15 32 -11 32 3 0 -1 8 -9 18 -8 9 -30 43 -48 75 -19 31 -38
57 -42 57 -4 0 -8 5 -8 12 0 20 -173 194 -202 204 -10 3 -18 9 -18 13 0 4 -18
17 -40 30 -22 12 -40 27 -40 32 0 6 -4 8 -9 4 -5 -3 -16 2 -24 10 -9 8 -23 15
-31 15 -9 0 -16 5 -16 10 0 6 -6 10 -13 10 -7 0 -32 9 -55 20 -22 11 -46 20
-52 20 -6 0 -21 6 -33 13 -12 7 -33 13 -47 12 -14 0 -28 3 -31 7 -3 5 -18 9
-35 10 -16 1 -33 4 -39 8 -5 3 -17 6 -25 5 -8 0 -30 2 -48 6 -17 4 -35 3 -38
-2 -3 -5 -11 -6 -17 -2 -12 8 -2784 13 -2792 5z"/>
</g>
</svg>
