<?xml version="1.0" encoding="UTF-8" standalone="no"?>
<!DOCTYPE svg PUBLIC "-//W3C//DTD SVG 1.1//EN" "http://www.w3.org/Graphics/SVG/1.1/DTD/svg11.dtd">
<svg width="100%" height="100%" viewBox="0 0 512 512" version="1.1" xmlns="http://www.w3.org/2000/svg" xmlns:xlink="http://www.w3.org/1999/xlink" xml:space="preserve" xmlns:serif="http://www.serif.com/" style="fill-rule:evenodd;clip-rule:evenodd;stroke-linejoin:round;stroke-miterlimit:2;">
    <g transform="matrix(6.12323e-17,-1,1,6.12323e-17,0,512)">
        <rect x="0" y="0" width="512" height="512" style="fill:url(#_Linear1);"/>
    </g>
    <path d="M486.905,136.358L486.905,136.281L486.925,136.281C487.57,133.875 487.905,131.373 487.905,128.838C487.905,108.864 487.905,68.451 487.905,44.078C487.905,38.778 485.799,33.696 482.052,29.948C478.304,26.201 473.222,24.095 467.922,24.095C391.771,24.095 120.22,24.095 44.075,24.095C38.776,24.095 33.694,26.2 29.947,29.947C26.2,33.694 24.095,38.776 24.095,44.075L24.095,467.883C24.095,478.941 33.059,487.905 44.117,487.905C69.981,487.905 113.836,487.905 132.027,487.905C137.335,487.905 142.426,485.798 146.181,482.047C187.193,441.088 430.838,197.76 479.464,149.197C483.055,145.61 485.601,141.173 486.905,136.358Z" style="fill:rgb(85,107,255);"/>
    <g transform="matrix(2.62904,-0.661551,0.661551,2.62904,-266.355,-316.301)">
        <path d="M98.52,213.328C98.766,212.573 99.469,212.061 100.263,212.061C101.057,212.061 101.761,212.573 102.007,213.328C104.358,220.566 108.257,232.564 108.257,232.564C108.257,232.564 120.857,232.564 128.469,232.564C129.265,232.564 129.97,233.076 130.216,233.833C130.462,234.59 130.193,235.42 129.549,235.887C123.39,240.362 113.197,247.768 113.197,247.768C113.197,247.768 117.078,259.714 119.432,266.957C119.679,267.718 119.408,268.553 118.76,269.024C118.112,269.495 117.235,269.495 116.587,269.024C110.426,264.547 100.263,257.164 100.263,257.164C100.263,257.164 90.091,264.555 83.931,269.031C83.284,269.5 82.409,269.5 81.762,269.031C81.115,268.561 80.845,267.728 81.092,266.968C83.445,259.726 87.33,247.768 87.33,247.768C87.33,247.768 77.161,240.38 71.001,235.904C70.354,235.434 70.083,234.6 70.33,233.839C70.577,233.079 71.286,232.564 72.086,232.564C79.701,232.564 92.27,232.564 92.27,232.564C92.27,232.564 96.169,220.566 98.52,213.328Z" style="fill:rgb(251,132,0);"/>
    </g>
    <defs>
        <linearGradient id="_Linear1" x1="0" y1="0" x2="1" y2="0" gradientUnits="userSpaceOnUse" gradientTransform="matrix(512,0,0,512,0,256)"><stop offset="0" style="stop-color:white;stop-opacity:1"/><stop offset="1" style="stop-color:rgb(170,170,170);stop-opacity:1"/></linearGradient>
    </defs>
</svg>
