<?xml version="1.0" encoding="UTF-8" standalone="no"?>
<!DOCTYPE svg PUBLIC "-//W3C//DTD SVG 1.1//EN" "http://www.w3.org/Graphics/SVG/1.1/DTD/svg11.dtd">
<svg width="100%" height="100%" viewBox="0 0 512 512" version="1.1" xmlns="http://www.w3.org/2000/svg" xmlns:xlink="http://www.w3.org/1999/xlink" xml:space="preserve" xmlns:serif="http://www.serif.com/" style="fill-rule:evenodd;clip-rule:evenodd;stroke-linejoin:round;stroke-miterlimit:2;">
    <g transform="matrix(6.12323e-17,-1,1,6.12323e-17,0,512)">
        <rect x="0" y="0" width="512" height="512" style="fill:url(#_Linear1);"/>
    </g>
    <g transform="matrix(0.868703,0,0,0.868703,33.6119,33.6119)">
        <path d="M486.905,136.358L486.905,136.281L486.925,136.281C487.57,133.875 487.905,131.373 487.905,128.838C487.905,108.864 487.905,68.451 487.905,44.078C487.905,38.778 485.799,33.696 482.052,29.948C478.304,26.201 473.222,24.095 467.922,24.095C391.771,24.095 120.22,24.095 44.075,24.095C38.776,24.095 33.694,26.2 29.947,29.947C26.2,33.694 24.095,38.776 24.095,44.075L24.095,467.883C24.095,478.941 33.059,487.905 44.117,487.905C69.981,487.905 113.836,487.905 132.027,487.905C137.335,487.905 142.426,485.798 146.181,482.047C187.193,441.088 430.838,197.76 479.464,149.197C483.055,145.61 485.601,141.173 486.905,136.358Z" style="fill:rgb(85,107,255);"/>
    </g>
    <g transform="matrix(3.42322,-0.86139,0.86139,3.42322,-354.145,-535.558)">
        <path d="M98.925,212.083C99.113,211.503 99.654,211.111 100.263,211.111C100.873,211.111 101.414,211.503 101.602,212.083C103.878,219.087 108.257,232.564 108.257,232.564C108.257,232.564 122.413,232.564 129.78,232.564C130.392,232.564 130.934,232.957 131.122,233.539C131.311,234.12 131.104,234.757 130.61,235.116C124.65,239.447 113.197,247.768 113.197,247.768C113.197,247.768 117.561,261.198 119.84,268.212C120.03,268.797 119.821,269.438 119.324,269.8C118.826,270.161 118.152,270.161 117.655,269.8C111.688,265.465 100.263,257.164 100.263,257.164C100.263,257.164 88.829,265.472 82.865,269.805C82.368,270.166 81.696,270.166 81.199,269.805C80.703,269.444 80.495,268.805 80.685,268.221C82.963,261.209 87.33,247.768 87.33,247.768C87.33,247.768 75.899,239.463 69.934,235.129C69.437,234.768 69.229,234.128 69.419,233.544C69.609,232.959 70.153,232.564 70.768,232.564C78.141,232.564 92.27,232.564 92.27,232.564C92.27,232.564 96.649,219.087 98.925,212.083Z" style="fill:rgb(251,132,0);"/>
    </g>
    <defs>
        <linearGradient id="_Linear1" x1="0" y1="0" x2="1" y2="0" gradientUnits="userSpaceOnUse" gradientTransform="matrix(512,0,0,512,0,256)"><stop offset="0" style="stop-color:white;stop-opacity:1"/><stop offset="1" style="stop-color:rgb(170,170,170);stop-opacity:1"/></linearGradient>
    </defs>
</svg>
