<?xml version="1.0" encoding="UTF-8" standalone="no"?>
<!DOCTYPE svg PUBLIC "-//W3C//DTD SVG 1.1//EN" "http://www.w3.org/Graphics/SVG/1.1/DTD/svg11.dtd">
<svg width="100%" height="100%" viewBox="0 0 512 512" version="1.1" xmlns="http://www.w3.org/2000/svg" xmlns:xlink="http://www.w3.org/1999/xlink" xml:space="preserve" xmlns:serif="http://www.serif.com/" style="fill-rule:evenodd;clip-rule:evenodd;stroke-linejoin:round;stroke-miterlimit:2;">
    <path d="M434.025,312.321C449.028,297.318 457.456,276.97 457.456,255.752L457.456,122.685C457.456,101.468 449.028,81.119 434.025,66.117C419.022,51.114 398.674,42.685 377.456,42.685L134.544,42.685C113.326,42.685 92.978,51.114 77.975,66.117C62.972,81.119 54.544,101.468 54.544,122.685L54.544,365.598C54.544,386.815 62.972,407.164 77.975,422.166C92.978,437.169 113.326,445.598 134.544,445.598L267.611,445.598C288.828,445.598 309.176,437.169 324.179,422.166C353.781,392.565 404.423,341.923 434.025,312.321Z" style="fill:rgb(85,107,255);"/>
    <g transform="matrix(3.99396,-1.00501,1.00501,3.99396,-403.23,-639.978)">
        <path d="M97.962,215.046C98.286,214.049 99.215,213.374 100.263,213.374C101.312,213.374 102.241,214.049 102.565,215.046C104.926,222.314 108.257,232.564 108.257,232.564C108.257,232.564 118.999,232.564 126.638,232.564C127.692,232.564 128.626,233.242 128.951,234.244C129.277,235.246 128.92,236.344 128.068,236.963C121.888,241.453 113.197,247.768 113.197,247.768C113.197,247.768 116.52,257.995 118.881,265.261C119.206,266.262 118.85,267.357 117.999,267.976C117.148,268.594 115.995,268.594 115.144,267.976C108.963,263.485 100.263,257.164 100.263,257.164C100.263,257.164 91.564,263.485 85.383,267.976C84.532,268.594 83.379,268.594 82.528,267.976C81.677,267.357 81.321,266.262 81.646,265.261C84.007,257.995 87.33,247.768 87.33,247.768C87.33,247.768 78.63,241.447 72.449,236.956C71.598,236.338 71.242,235.242 71.567,234.242C71.892,233.241 72.825,232.564 73.877,232.564C81.517,232.564 92.27,232.564 92.27,232.564C92.27,232.564 95.601,222.314 97.962,215.046Z" style="fill:rgb(251,132,0);"/>
    </g>
</svg>
