<?xml version="1.0" encoding="UTF-8" standalone="no"?>
<!DOCTYPE svg PUBLIC "-//W3C//DTD SVG 1.1//EN" "http://www.w3.org/Graphics/SVG/1.1/DTD/svg11.dtd">
<svg width="100%" height="100%" viewBox="0 0 512 512" version="1.1" xmlns="http://www.w3.org/2000/svg" xmlns:xlink="http://www.w3.org/1999/xlink" xml:space="preserve" xmlns:serif="http://www.serif.com/" style="fill-rule:evenodd;clip-rule:evenodd;stroke-linejoin:round;stroke-miterlimit:2;">
    <g transform="matrix(6.12323e-17,-1,1,6.12323e-17,0,512)">
        <rect x="0" y="0" width="512" height="512" style="fill:url(#_Linear1);"/>
    </g>
    <g transform="matrix(2.09166,-2.09184,1.98223,1.98205,-239.218,275.578)">
        <path d="M118.275,10.274C119.542,8.933 121.264,8.178 123.059,8.178C124.854,8.178 126.575,8.933 127.842,10.274C144.774,28.199 202.171,88.963 226.882,115.123C228.806,117.16 229.379,120.22 228.334,122.877C227.289,125.534 224.831,127.265 222.105,127.265L23.987,127.265C21.265,127.265 18.811,125.536 17.768,122.883C16.724,120.231 17.296,117.176 19.218,115.141C43.919,88.992 101.339,28.204 118.275,10.274Z" style="fill:rgb(85,107,255);"/>
    </g>
    <g transform="matrix(0.969769,-0.244025,0.244025,0.969769,-68.5672,152.091)">
        <path d="M97.376,216.85C97.782,215.599 98.948,214.753 100.263,214.753C101.579,214.753 102.745,215.599 103.151,216.85C105.44,223.896 108.257,232.564 108.257,232.564C108.257,232.564 117.528,232.564 124.969,232.564C126.258,232.564 127.4,233.394 127.798,234.619C128.196,235.845 127.76,237.187 126.717,237.944C120.697,242.318 113.197,247.768 113.197,247.768C113.197,247.768 116.071,256.615 118.373,263.698C118.769,264.919 118.335,266.256 117.297,267.01C116.259,267.764 114.853,267.764 113.815,267.01C107.79,262.632 100.263,257.164 100.263,257.164C100.263,257.164 92.841,262.557 86.837,266.919C85.782,267.686 84.352,267.686 83.296,266.919C82.24,266.152 81.799,264.792 82.202,263.551C84.495,256.493 87.33,247.768 87.33,247.768C87.33,247.768 79.929,242.391 73.93,238.032C72.87,237.262 72.427,235.898 72.832,234.652C73.236,233.407 74.397,232.564 75.707,232.564C83.122,232.564 92.27,232.564 92.27,232.564C92.27,232.564 95.087,223.896 97.376,216.85Z" style="fill:rgb(251,132,0);"/>
    </g>
    <defs>
        <linearGradient id="_Linear1" x1="0" y1="0" x2="1" y2="0" gradientUnits="userSpaceOnUse" gradientTransform="matrix(512,0,0,512,0,256)"><stop offset="0" style="stop-color:white;stop-opacity:1"/><stop offset="1" style="stop-color:rgb(170,170,170);stop-opacity:1"/></linearGradient>
    </defs>
</svg>
